# 3ds Max Wavefront OBJ Exporter v0.97b - (c)2007 guruware
# File Created: 23.11.2019 22:52:14

mtllib Suporte pra bandeira.mtl

#
# object Cylinder001
#

v  -0.8024 0.0000 -5.9421
v  7.1101 0.0000 -12.5815
v  8.9038 0.0000 -9.4749
v  9.5267 0.0000 -5.9421
v  0.9912 0.0000 -16.1143
v  4.3621 0.0000 -14.8874
v  -5.9670 0.0000 -14.8874
v  -2.5960 0.0000 -16.1143
v  -10.5086 0.0000 -9.4749
v  -8.7150 0.0000 -12.5815
v  -10.5086 0.0000 -2.4094
v  -11.1315 0.0000 -5.9421
v  -5.9670 0.0000 3.0031
v  -8.7150 0.0000 0.6973
v  0.9912 0.0000 4.2300
v  -2.5960 0.0000 4.2300
v  7.1101 0.0000 0.6973
v  4.3621 0.0000 3.0031
v  8.9037 0.0000 -2.4094
v  8.9038 140.6818 -9.4749
v  9.5267 140.6818 -5.9421
v  7.1101 140.6818 -12.5815
v  4.3621 140.6818 -14.8874
v  0.9912 140.6818 -16.1143
v  -2.5960 140.6818 -16.1143
v  -5.9670 140.6818 -14.8874
v  -8.7150 140.6818 -12.5815
v  -10.5086 140.6818 -9.4749
v  -11.1315 140.6818 -5.9421
v  -10.5086 140.6818 -2.4094
v  -8.7150 140.6818 0.6973
v  -5.9670 140.6818 3.0031
v  -2.5960 140.6818 4.2300
v  0.9912 140.6818 4.2300
v  4.3621 140.6818 3.0031
v  7.1101 140.6818 0.6973
v  8.9037 140.6818 -2.4094
v  8.9038 281.3636 -9.4749
v  9.5267 281.3636 -5.9421
v  7.1101 281.3636 -12.5815
v  4.3621 281.3636 -14.8874
v  0.9912 281.3636 -16.1143
v  -2.5960 281.3636 -16.1143
v  -5.9670 281.3636 -14.8874
v  -8.7150 281.3636 -12.5815
v  -10.5086 281.3636 -9.4749
v  -11.1315 281.3636 -5.9421
v  -10.5086 281.3636 -2.4094
v  -8.7150 281.3636 0.6973
v  -5.9670 281.3636 3.0031
v  -2.5960 281.3636 4.2300
v  0.9912 281.3636 4.2300
v  4.3621 281.3636 3.0031
v  7.1101 281.3636 0.6973
v  8.9037 281.3636 -2.4094
v  8.9038 422.0454 -9.4749
v  9.5267 422.0454 -5.9421
v  7.1101 422.0454 -12.5815
v  4.3621 422.0454 -14.8874
v  0.9912 422.0454 -16.1143
v  -2.5960 422.0454 -16.1143
v  -5.9670 422.0454 -14.8874
v  -8.7150 422.0454 -12.5815
v  -10.5086 422.0454 -9.4749
v  -11.1315 422.0454 -5.9421
v  -10.5086 422.0454 -2.4094
v  -8.7150 422.0454 0.6973
v  -5.9670 422.0454 3.0031
v  -2.5960 422.0454 4.2300
v  0.9912 422.0454 4.2300
v  4.3621 422.0454 3.0031
v  7.1101 422.0454 0.6973
v  8.9037 422.0454 -2.4094
v  8.9038 562.7272 -9.4749
v  9.5267 562.7272 -5.9421
v  7.1101 562.7272 -12.5815
v  4.3621 562.7272 -14.8874
v  0.9912 562.7272 -16.1143
v  -2.5960 562.7272 -16.1143
v  -5.9670 562.7272 -14.8874
v  -8.7150 562.7272 -12.5815
v  -10.5086 562.7272 -9.4749
v  -11.1315 562.7272 -5.9421
v  -10.5086 562.7272 -2.4094
v  -8.7150 562.7272 0.6973
v  -5.9670 562.7272 3.0031
v  -2.5960 562.7272 4.2300
v  0.9912 562.7272 4.2300
v  4.3621 562.7272 3.0031
v  7.1101 562.7272 0.6973
v  8.9037 562.7272 -2.4094
v  8.9038 703.4090 -9.4749
v  9.5267 703.4090 -5.9421
v  7.1101 703.4090 -12.5815
v  4.3621 703.4090 -14.8874
v  0.9912 703.4090 -16.1143
v  -2.5960 703.4090 -16.1143
v  -5.9670 703.4090 -14.8874
v  -8.7150 703.4090 -12.5815
v  -10.5086 703.4090 -9.4749
v  -11.1315 703.4090 -5.9421
v  -10.5086 703.4090 -2.4094
v  -8.7150 703.4090 0.6973
v  -5.9670 703.4090 3.0031
v  -2.5960 703.4090 4.2300
v  0.9912 703.4090 4.2300
v  4.3621 703.4090 3.0031
v  7.1101 703.4090 0.6973
v  8.9037 703.4090 -2.4094
v  -0.8024 703.4090 -5.9421
# 110 vertices

vn 0.0000 -1.0000 -0.0000
vn 0.5687 -0.6700 -0.4772
vn 0.6975 -0.6701 -0.2539
vn 0.7423 -0.6701 0.0000
vn 0.1289 -0.6700 -0.7311
vn 0.3712 -0.6700 -0.6429
vn -0.3712 -0.6701 -0.6428
vn -0.1289 -0.6701 -0.7310
vn -0.6975 -0.6701 -0.2539
vn -0.5686 -0.6701 -0.4771
vn -0.6976 -0.6700 0.2539
vn -0.7423 -0.6701 0.0000
vn -0.3712 -0.6700 0.6429
vn -0.5687 -0.6700 0.4772
vn 0.1289 -0.6700 0.7311
vn -0.1289 -0.6700 0.7311
vn 0.5687 -0.6700 0.4772
vn 0.3712 -0.6700 0.6429
vn 0.6976 -0.6700 0.2539
vn 0.9397 -0.0000 -0.3420
vn 1.0000 -0.0000 0.0000
vn 0.7660 -0.0000 -0.6428
vn 0.5000 -0.0000 -0.8660
vn 0.1736 -0.0000 -0.9848
vn -0.1736 -0.0000 -0.9848
vn -0.5000 -0.0000 -0.8660
vn -0.7660 -0.0000 -0.6428
vn -0.9397 -0.0000 -0.3420
vn -1.0000 -0.0000 -0.0000
vn -0.9397 -0.0000 0.3420
vn -0.7660 -0.0000 0.6428
vn -0.5000 -0.0000 0.8660
vn -0.1736 -0.0000 0.9848
vn 0.1736 -0.0000 0.9848
vn 0.5000 -0.0000 0.8660
vn 0.7660 -0.0000 0.6428
vn 0.9397 -0.0000 0.3420
vn 0.9397 0.0000 -0.3420
vn 1.0000 0.0000 0.0000
vn 0.7660 0.0000 -0.6428
vn 0.5000 0.0000 -0.8660
vn 0.1736 0.0000 -0.9848
vn -0.1736 0.0000 -0.9848
vn -0.5000 0.0000 -0.8660
vn -0.7660 0.0000 -0.6428
vn -0.9397 0.0000 -0.3420
vn -1.0000 0.0000 -0.0000
vn -0.9397 0.0000 0.3420
vn -0.7660 0.0000 0.6428
vn -0.5000 0.0000 0.8660
vn -0.1736 0.0000 0.9848
vn 0.1736 0.0000 0.9848
vn 0.5000 0.0000 0.8660
vn 0.7660 0.0000 0.6428
vn 0.9397 0.0000 0.3420
vn -1.0000 0.0000 0.0000
vn 0.6975 0.6701 -0.2539
vn 0.7423 0.6701 0.0000
vn 0.5687 0.6700 -0.4772
vn 0.3712 0.6700 -0.6429
vn 0.1289 0.6700 -0.7311
vn -0.1289 0.6701 -0.7310
vn -0.3712 0.6701 -0.6428
vn -0.5686 0.6701 -0.4772
vn -0.6975 0.6701 -0.2539
vn -0.7423 0.6701 0.0000
vn -0.6976 0.6700 0.2539
vn -0.5687 0.6700 0.4772
vn -0.3712 0.6700 0.6429
vn -0.1289 0.6700 0.7311
vn 0.1289 0.6700 0.7311
vn 0.3712 0.6700 0.6429
vn 0.5687 0.6700 0.4772
vn 0.6976 0.6700 0.2539
vn 0.0000 1.0000 -0.0000
# 75 vertex normals

vt 0.5000 0.0000 0.0000
vt 0.8611 0.0000 1.0000
vt 0.8056 0.0000 1.0000
vt 0.7500 0.0000 1.0000
vt 0.9722 0.0000 1.0000
vt 0.9167 0.0000 1.0000
vt 0.0833 0.0000 1.0000
vt 0.0278 0.0000 1.0000
vt -0.0278 0.0000 1.0000
vt 0.1944 0.0000 1.0000
vt 0.1389 0.0000 1.0000
vt 0.3056 0.0000 1.0000
vt 0.2500 0.0000 1.0000
vt 0.4167 0.0000 1.0000
vt 0.3611 0.0000 1.0000
vt 0.5278 0.0000 1.0000
vt 0.4722 0.0000 1.0000
vt 0.6389 0.0000 1.0000
vt 0.5833 0.0000 1.0000
vt 0.6944 0.0000 1.0000
vt 0.8056 0.2000 1.0000
vt 0.7500 0.2000 1.0000
vt 0.8611 0.2000 1.0000
vt 0.9167 0.2000 1.0000
vt 0.9722 0.2000 1.0000
vt 0.0278 0.2000 1.0000
vt -0.0278 0.2000 1.0000
vt 0.0833 0.2000 1.0000
vt 0.1389 0.2000 1.0000
vt 0.1944 0.2000 1.0000
vt 0.2500 0.2000 1.0000
vt 0.3056 0.2000 1.0000
vt 0.3611 0.2000 1.0000
vt 0.4167 0.2000 1.0000
vt 0.4722 0.2000 1.0000
vt 0.5278 0.2000 1.0000
vt 0.5833 0.2000 1.0000
vt 0.6389 0.2000 1.0000
vt 0.6944 0.2000 1.0000
vt 0.8056 0.4000 1.0000
vt 0.7500 0.4000 1.0000
vt 0.8611 0.4000 1.0000
vt 0.9167 0.4000 1.0000
vt 0.9722 0.4000 1.0000
vt 0.0278 0.4000 1.0000
vt -0.0278 0.4000 1.0000
vt 0.0833 0.4000 1.0000
vt 0.1389 0.4000 1.0000
vt 0.1944 0.4000 1.0000
vt 0.2500 0.4000 1.0000
vt 0.3056 0.4000 1.0000
vt 0.3611 0.4000 1.0000
vt 0.4167 0.4000 1.0000
vt 0.4722 0.4000 1.0000
vt 0.5278 0.4000 1.0000
vt 0.5833 0.4000 1.0000
vt 0.6389 0.4000 1.0000
vt 0.6944 0.4000 1.0000
vt 0.8056 0.6000 1.0000
vt 0.7500 0.6000 1.0000
vt 0.8611 0.6000 1.0000
vt 0.9167 0.6000 1.0000
vt 0.9722 0.6000 1.0000
vt 0.0278 0.6000 1.0000
vt -0.0278 0.6000 1.0000
vt 0.0833 0.6000 1.0000
vt 0.1389 0.6000 1.0000
vt 0.1944 0.6000 1.0000
vt 0.2500 0.6000 1.0000
vt 0.3056 0.6000 1.0000
vt 0.3611 0.6000 1.0000
vt 0.4167 0.6000 1.0000
vt 0.4722 0.6000 1.0000
vt 0.5278 0.6000 1.0000
vt 0.5833 0.6000 1.0000
vt 0.6389 0.6000 1.0000
vt 0.6944 0.6000 1.0000
vt 0.8056 0.8000 1.0000
vt 0.7500 0.8000 1.0000
vt 0.8611 0.8000 1.0000
vt 0.9167 0.8000 1.0000
vt 0.9722 0.8000 1.0000
vt 0.0278 0.8000 1.0000
vt -0.0278 0.8000 1.0000
vt 0.0833 0.8000 1.0000
vt 0.1389 0.8000 1.0000
vt 0.1944 0.8000 1.0000
vt 0.2500 0.8000 1.0000
vt 0.3056 0.8000 1.0000
vt 0.3611 0.8000 1.0000
vt 0.4167 0.8000 1.0000
vt 0.4722 0.8000 1.0000
vt 0.5278 0.8000 1.0000
vt 0.5833 0.8000 1.0000
vt 0.6389 0.8000 1.0000
vt 0.6944 0.8000 1.0000
vt 0.8056 1.0000 1.0000
vt 0.7500 1.0000 1.0000
vt 0.8611 1.0000 1.0000
vt 0.9167 1.0000 1.0000
vt 0.9722 1.0000 1.0000
vt 0.0278 1.0000 1.0000
vt -0.0278 1.0000 1.0000
vt 0.0833 1.0000 1.0000
vt 0.1389 1.0000 1.0000
vt 0.1944 1.0000 1.0000
vt 0.2500 1.0000 1.0000
vt 0.3056 1.0000 1.0000
vt 0.3611 1.0000 1.0000
vt 0.4167 1.0000 1.0000
vt 0.4722 1.0000 1.0000
vt 0.5278 1.0000 1.0000
vt 0.5833 1.0000 1.0000
vt 0.6389 1.0000 1.0000
vt 0.6944 1.0000 1.0000
vt 0.5000 1.0000 0.0000
vt 0.9708 1.0000 0.8794
# 117 texture coords

o Cylinder001
g Cylinder001
usemtl wire_086086086
s 1
f 1/1/1 2/2/2 3/3/3 4/4/4 
f 1/1/1 5/5/5 6/6/6 2/2/2 
f 1/1/1 7/7/7 8/8/8 5/9/5 
f 1/1/1 9/10/9 10/11/10 7/7/7 
f 1/1/1 11/12/11 12/13/12 9/10/9 
f 1/1/1 13/14/13 14/15/14 11/12/11 
f 1/1/1 15/16/15 16/17/16 13/14/13 
f 1/1/1 17/18/17 18/19/18 15/16/15 
f 1/1/1 4/4/4 19/20/19 17/18/17 
s 8
f 4/4/4 3/3/3 20/21/20 21/22/21 
f 3/3/3 2/2/2 22/23/22 20/21/20 
f 2/2/2 6/6/6 23/24/23 22/23/22 
f 6/6/6 5/5/5 24/25/24 23/24/23 
f 5/9/5 8/8/8 25/26/25 24/27/24 
f 8/8/8 7/7/7 26/28/26 25/26/25 
f 7/7/7 10/11/10 27/29/27 26/28/26 
f 10/11/10 9/10/9 28/30/28 27/29/27 
f 9/10/9 12/13/12 29/31/29 28/30/28 
f 12/13/12 11/12/11 30/32/30 29/31/29 
f 11/12/11 14/15/14 31/33/31 30/32/30 
f 14/15/14 13/14/13 32/34/32 31/33/31 
f 13/14/13 16/17/16 33/35/33 32/34/32 
f 16/17/16 15/16/15 34/36/34 33/35/33 
f 15/16/15 18/19/18 35/37/35 34/36/34 
f 18/19/18 17/18/17 36/38/36 35/37/35 
f 17/18/17 19/20/19 37/39/37 36/38/36 
f 19/20/19 4/4/4 21/22/21 37/39/37 
f 21/22/21 20/21/20 38/40/38 39/41/39 
f 20/21/20 22/23/22 40/42/40 38/40/38 
f 22/23/22 23/24/23 41/43/41 40/42/40 
f 23/24/23 24/25/24 42/44/42 41/43/41 
f 24/27/24 25/26/25 43/45/43 42/46/42 
f 25/26/25 26/28/26 44/47/44 43/45/43 
f 26/28/26 27/29/27 45/48/45 44/47/44 
f 27/29/27 28/30/28 46/49/46 45/48/45 
f 28/30/28 29/31/29 47/50/47 46/49/46 
f 29/31/29 30/32/30 48/51/48 47/50/47 
f 30/32/30 31/33/31 49/52/49 48/51/48 
f 31/33/31 32/34/32 50/53/50 49/52/49 
f 32/34/32 33/35/33 51/54/51 50/53/50 
f 33/35/33 34/36/34 52/55/52 51/54/51 
f 34/36/34 35/37/35 53/56/53 52/55/52 
f 35/37/35 36/38/36 54/57/54 53/56/53 
f 36/38/36 37/39/37 55/58/55 54/57/54 
f 37/39/37 21/22/21 39/41/39 55/58/55 
f 39/41/39 38/40/38 56/59/38 57/60/39 
f 38/40/38 40/42/40 58/61/40 56/59/38 
f 40/42/40 41/43/41 59/62/41 58/61/40 
f 41/43/41 42/44/42 60/63/42 59/62/41 
f 42/46/42 43/45/43 61/64/43 60/65/42 
f 43/45/43 44/47/44 62/66/44 61/64/43 
f 44/47/44 45/48/45 63/67/45 62/66/44 
f 45/48/45 46/49/46 64/68/46 63/67/45 
f 46/49/46 47/50/47 65/69/47 64/68/46 
f 47/50/47 48/51/48 66/70/48 65/69/47 
f 48/51/48 49/52/49 67/71/49 66/70/48 
f 49/52/49 50/53/50 68/72/50 67/71/49 
f 50/53/50 51/54/51 69/73/51 68/72/50 
f 51/54/51 52/55/52 70/74/52 69/73/51 
f 52/55/52 53/56/53 71/75/53 70/74/52 
f 53/56/53 54/57/54 72/76/54 71/75/53 
f 54/57/54 55/58/55 73/77/55 72/76/54 
f 55/58/55 39/41/39 57/60/39 73/77/55 
f 57/60/39 56/59/38 74/78/38 75/79/39 
f 56/59/38 58/61/40 76/80/40 74/78/38 
f 58/61/40 59/62/41 77/81/41 76/80/40 
f 59/62/41 60/63/42 78/82/42 77/81/41 
f 60/65/42 61/64/43 79/83/43 78/84/42 
f 61/64/43 62/66/44 80/85/44 79/83/43 
f 62/66/44 63/67/45 81/86/45 80/85/44 
f 63/67/45 64/68/46 82/87/46 81/86/45 
f 64/68/46 65/69/47 83/88/56 82/87/46 
f 65/69/47 66/70/48 84/89/48 83/88/56 
f 66/70/48 67/71/49 85/90/49 84/89/48 
f 67/71/49 68/72/50 86/91/50 85/90/49 
f 68/72/50 69/73/51 87/92/51 86/91/50 
f 69/73/51 70/74/52 88/93/52 87/92/51 
f 70/74/52 71/75/53 89/94/53 88/93/52 
f 71/75/53 72/76/54 90/95/54 89/94/53 
f 72/76/54 73/77/55 91/96/55 90/95/54 
f 73/77/55 57/60/39 75/79/39 91/96/55 
f 75/79/39 74/78/38 92/97/57 93/98/58 
f 74/78/38 76/80/40 94/99/59 92/97/57 
f 76/80/40 77/81/41 95/100/60 94/99/59 
f 77/81/41 78/82/42 96/101/61 95/100/60 
f 78/84/42 79/83/43 97/102/62 96/103/61 
f 79/83/43 80/85/44 98/104/63 97/102/62 
f 80/85/44 81/86/45 99/105/64 98/104/63 
f 81/86/45 82/87/46 100/106/65 99/105/64 
f 82/87/46 83/88/56 101/107/66 100/106/65 
f 83/88/56 84/89/48 102/108/67 101/107/66 
f 84/89/48 85/90/49 103/109/68 102/108/67 
f 85/90/49 86/91/50 104/110/69 103/109/68 
f 86/91/50 87/92/51 105/111/70 104/110/69 
f 87/92/51 88/93/52 106/112/71 105/111/70 
f 88/93/52 89/94/53 107/113/72 106/112/71 
f 89/94/53 90/95/54 108/114/73 107/113/72 
f 90/95/54 91/96/55 109/115/74 108/114/73 
f 91/96/55 75/79/39 93/98/58 109/115/74 
s 1
f 110/116/75 109/115/74 93/98/58 92/97/57 
f 110/116/75 92/97/57 94/99/59 95/100/60 
f 110/116/75 95/100/60 96/101/61 97/117/62 
f 110/116/75 97/102/62 98/104/63 99/105/64 
f 110/116/75 99/105/64 100/106/65 101/107/66 
f 110/116/75 101/107/66 102/108/67 103/109/68 
f 110/116/75 103/109/68 104/110/69 105/111/70 
f 110/116/75 105/111/70 106/112/71 107/113/72 
f 110/116/75 107/113/72 108/114/73 109/115/74 
# 108 polygons

